<?xml version="1.0" encoding="UTF-8"?>
<!DOCTYPE svg PUBLIC "-//W3C//DTD SVG 1.1//EN" "http://www.w3.org/Graphics/SVG/1.1/DTD/svg11.dtd">
<svg xmlns="http://www.w3.org/2000/svg" version="1.1"  width='22px' height='23px' viewBox="0 10 300 300" style="shape-rendering:geometricPrecision; text-rendering:geometricPrecision; image-rendering:optimizeQuality; fill-rule:evenodd; clip-rule:evenodd" xmlns:xlink="http://www.w3.org/1999/xlink">
<g><path style="opacity:0.981" fill="#313037" d="M -0.5,279.5 C -0.5,240.833 -0.5,202.167 -0.5,163.5C 5.06947,145.104 17.4028,134.271 36.5,131C 49.0755,130.823 61.5755,130.323 74,129.5C 91.5275,90.5833 108.861,51.5833 126,12.5C 129.192,8.07014 133.526,5.73681 139,5.5C 160.358,6.89194 176.691,16.5586 188,34.5C 190.799,40.2316 192.799,46.2316 194,52.5C 194.5,69.4967 194.667,86.4967 194.5,103.5C 219.169,103.333 243.836,103.5 268.5,104C 292.399,111.273 303.232,127.44 301,152.5C 294.464,196.589 287.464,240.589 280,284.5C 273.282,300.883 261.115,310.05 243.5,312C 175.167,312.667 106.833,312.667 38.5,312C 18.3202,309.644 5.32018,298.811 -0.5,279.5 Z M 38.5,159.5 C 48.5,159.5 58.5,159.5 68.5,159.5C 68.5,200.833 68.5,242.167 68.5,283.5C 58.4944,283.666 48.4944,283.5 38.5,283C 32.5529,281.387 29.0529,277.553 28,271.5C 27.3333,238.167 27.3333,204.833 28,171.5C 29.2424,165.43 32.7424,161.43 38.5,159.5 Z"/></g>
<g><path style="opacity:1" fill="#525fcc" d="M 145.5,35.5 C 155.7,36.8484 162.534,42.515 166,52.5C 167.281,75.4583 167.948,98.4583 168,121.5C 169.793,124.295 171.96,126.795 174.5,129C 204.439,130.31 234.439,130.977 264.5,131C 270.531,133.726 273.865,138.393 274.5,145C 267.908,186.812 261.408,228.645 255,270.5C 254.654,277.038 251.487,281.538 245.5,284C 195.834,284.5 146.168,284.667 96.5,284.5C 96.3333,238.165 96.5,191.832 97,145.5C 113.269,108.851 129.436,72.1839 145.5,35.5 Z"/></g>
</svg>
