<?xml version="1.0" encoding="UTF-8"?>
<!DOCTYPE svg PUBLIC "-//W3C//DTD SVG 1.1//EN" "http://www.w3.org/Graphics/SVG/1.1/DTD/svg11.dtd">
<svg xmlns="http://www.w3.org/2000/svg" version="1.1" width='22px' height='23px' viewBox="10 5 300 300" style="shape-rendering:geometricPrecision; text-rendering:geometricPrecision; image-rendering:optimizeQuality; fill-rule:evenodd; clip-rule:evenodd" xmlns:xlink="http://www.w3.org/1999/xlink">
<g><path style="opacity:0.98" fill="#313036" d="M 67.5,5.5 C 136.528,5.02343 205.528,5.52343 274.5,7C 292.261,11.7614 303.761,22.9281 309,40.5C 310.634,76.461 310.967,112.461 310,148.5C 304.843,170.656 291.01,183.489 268.5,187C 257.485,187.168 246.485,187.668 235.5,188.5C 218.392,226.382 201.559,264.382 185,302.5C 182.075,308.805 177.075,312.139 170,312.5C 140.916,310.077 122.916,294.743 116,266.5C 115.5,249.17 115.333,231.837 115.5,214.5C 89.4487,214.963 63.4487,214.463 37.5,213C 16.0385,204.502 6.53845,188.669 9,165.5C 15.5737,122.484 22.2404,79.4841 29,36.5C 35.5327,18.1158 48.366,7.78246 67.5,5.5 Z M 240.5,34.5 C 249.506,34.3336 258.506,34.5002 267.5,35C 274.237,36.7361 278.737,40.9028 281,47.5C 281.167,63.8333 281.333,80.1667 281.5,96.5C 281.646,113.897 281.146,131.23 280,148.5C 277.28,153.551 273.113,156.718 267.5,158C 258.506,158.5 249.506,158.666 240.5,158.5C 240.5,117.167 240.5,75.8333 240.5,34.5 Z"/></g>
<g><path style="opacity:1" fill="#fb3419" d="M 65.5,33.5 C 114.833,33.5 164.167,33.5 213.5,33.5C 213.667,79.5012 213.5,125.501 213,171.5C 196.667,208.167 180.333,244.833 164,281.5C 160.632,282.83 157.465,282.33 154.5,280C 152.667,276.833 150.167,274.333 147,272.5C 145.725,270.283 144.725,267.949 144,265.5C 142.709,242.883 142.042,220.217 142,197.5C 140.167,193 137,189.833 132.5,188C 103.833,187.667 75.1667,187.333 46.5,187C 41.7396,185.904 38.5729,183.071 37,178.5C 36.3333,173.833 36.3333,169.167 37,164.5C 42.9068,125.486 48.9068,86.4856 55,47.5C 55.3808,40.3733 58.8808,35.7066 65.5,33.5 Z"/></g>
</svg>
